<svg width="600" height="600" viewBox="0 0 600 600" fill="none" xmlns="http://www.w3.org/2000/svg">
<rect width="600" height="600" rx="129" fill="#1A58F2"/>
<path d="M192.612 477.097C214.934 477.347 236.469 473.648 257.871 469.069C295.123 461.099 331.364 449.835 366.205 434.394C408.997 415.431 449.16 392.037 484.958 361.647C497.689 350.839 509.21 338.832 517.661 324.222C523.801 313.607 527.36 302.407 524.798 290.004C522.481 278.786 515.758 270.388 507.161 263.289C495.941 254.024 482.915 248.097 469.419 243.079C465.892 241.768 462.357 240.203 458.687 239.615C453.557 238.793 452.005 235.342 450.871 231.173C451.696 230.192 452.68 230.585 453.528 230.785C474.371 235.698 494.796 241.795 513.488 252.602C522.238 257.66 530.321 263.609 536.848 271.428C550.355 287.606 553.073 305.787 546.766 325.611C541.552 342.001 532.117 355.864 520.868 368.596C497.4 395.158 468.941 415.563 439.163 434.267C411.271 451.787 381.994 466.658 351.522 479.157C316.375 493.574 280.231 504.664 242.726 510.96C222.186 514.409 201.491 516.814 180.61 516.116C167.316 515.672 154.078 514.314 141.613 509.103C132.76 505.401 125.418 500.123 123.643 489.83C122.518 483.307 124.824 477.443 127.71 471.792C130.783 465.774 135.026 460.573 139.592 455.655C153.249 440.944 169.044 428.64 184.547 416.018C212.884 392.949 240.764 369.358 267.665 344.611C299.794 315.054 331.426 284.976 362.727 254.547C368.592 248.845 374.838 243.673 381.66 239.107C395.056 230.139 408.274 220.905 421.509 211.699C423.489 210.322 424.598 210.336 425.965 212.52C435.595 227.904 442.904 244.278 446.863 262.016C451.223 281.555 451.583 301.169 447.504 320.858C440.729 353.551 424.768 381.006 400.006 403.165C377.104 423.659 350.196 436.12 319.674 440.201C282.87 445.121 248.773 437.277 217.375 417.534C213.464 415.075 213.304 415.066 209.877 418.237C198.966 428.336 188.058 438.441 178.389 449.776C175.184 453.534 172.377 457.58 170.856 462.357C169.089 467.904 171.171 472.297 176.612 474.494C181.641 476.526 186.921 477.13 192.612 477.097Z" fill="white"/>
<path d="M176.706 206.785C199.538 175.912 229.369 155.787 266.669 147.628C305.319 139.173 342.001 145.075 376.035 165.508C385.078 170.937 392.968 177.759 397.263 187.931C398.397 190.617 398.166 192.67 396.563 194.911C390.719 203.084 384.929 211.295 379.125 219.497C377.917 221.204 376.562 222.836 375.569 224.663C368.462 237.735 357.319 247.173 346.519 256.882C327.215 274.235 307.434 291.037 286.823 306.823C263.533 324.661 239.629 341.585 213.028 354.288C195.018 362.888 176.343 368.925 156.136 369.331C121.02 370.038 90.3197 359.026 64.7992 334.701C56.9093 327.181 51.825 317.816 50.3659 306.764C48.8937 295.614 51.9367 285.611 58.1907 276.502C67.1623 263.435 79.7881 254.763 93.641 247.709C111.023 238.857 129.558 233.412 148.612 229.587C149.427 229.424 150.249 229.212 151.041 229.667C150.827 234.188 148.348 237.514 144.279 238.79C129.629 243.384 115.484 249.091 103.115 258.416C95.0747 264.477 88.1102 271.53 84.8944 281.436C81.6972 291.284 83.9397 300.281 89.7607 308.471C97.9247 319.958 109.612 326.508 122.548 331.135C130.962 334.145 139.7 335.739 148.57 336.656C149.296 336.731 150.036 336.739 150.765 336.695C154.035 336.496 154.676 335.7 153.742 332.521C151.79 325.881 150.447 319.124 149.547 312.273C146.102 286.044 149.603 260.754 159.889 236.4C164.305 225.945 169.859 216.125 176.706 206.785Z" fill="white"/>
<path d="M445.513 178.382C427 193.739 408.253 208.437 389.022 222.661C405.567 198.507 423.652 175.545 442.066 151.853C433.55 147.961 425.469 144.268 417.389 140.576C417.353 140.228 417.317 139.881 417.281 139.534C453.826 120.689 490.371 101.845 526.916 83C527.224 83.2424 527.533 83.4848 527.841 83.7273C509.273 120.19 490.705 156.653 472.137 193.116C471.81 193.124 471.482 193.131 471.155 193.139C467.119 184.857 463.084 176.575 458.896 167.98C453.8 171.076 450.022 175.029 445.513 178.382Z" fill="white"/>
</svg>
